<?xml version="1.0" standalone="no"?>
<!DOCTYPE svg PUBLIC "-//W3C//DTD SVG 20010904//EN"
 "http://www.w3.org/TR/2001/REC-SVG-20010904/DTD/svg10.dtd">
<svg version="1.0" xmlns="http://www.w3.org/2000/svg"
 width="700.000000pt" height="700.000000pt" viewBox="0 0 700.000000 700.000000"
 preserveAspectRatio="xMidYMid meet">
<metadata>
Created by potrace 1.14, written by Peter Selinger 2001-2017
</metadata>
<g transform="translate(0.000000,700.000000) scale(0.100000,-0.100000)"
fill="#000000" stroke="none">
<path d="M3380 6844 c-58 -13 -114 -25 -125 -28 -11 -2 -31 -7 -45 -10 -14 -3
-36 -8 -50 -10 -14 -3 -195 -41 -404 -85 -208 -45 -390 -83 -405 -86 -14 -3
-73 -16 -131 -29 l-105 -22 -571 -415 -572 -414 -83 -144 c-46 -79 -95 -162
-108 -185 -13 -22 -49 -86 -81 -141 -32 -55 -67 -116 -77 -135 -11 -19 -97
-168 -191 -330 -179 -311 -174 -297 -187 -455 -4 -38 -8 -81 -10 -95 -2 -14
-7 -61 -10 -105 -4 -44 -8 -82 -10 -85 -2 -3 -6 -43 -10 -90 -4 -47 -8 -92
-10 -100 -1 -8 -6 -49 -10 -90 -3 -41 -8 -86 -10 -100 -2 -14 -6 -54 -10 -90
-3 -36 -8 -81 -10 -100 -2 -19 -7 -64 -11 -100 -3 -36 -7 -72 -9 -80 -3 -18
-18 -177 -18 -205 -1 -11 22 -90 50 -175 28 -85 81 -245 116 -355 291 -896
264 -819 315 -877 26 -29 49 -55 52 -58 3 -3 48 -52 100 -110 52 -58 96 -107
99 -110 4 -3 40 -43 81 -90 41 -47 80 -89 86 -95 5 -5 46 -50 90 -100 43 -49
86 -97 94 -105 8 -8 35 -38 60 -65 25 -28 81 -91 125 -139 44 -49 85 -96 92
-106 7 -9 101 -57 210 -105 109 -48 221 -98 248 -110 28 -13 233 -104 456
-203 l405 -181 704 0 704 0 393 174 c429 191 441 196 556 249 44 20 80 36 82
36 2 0 33 13 69 30 36 16 96 44 134 61 37 17 77 42 90 57 12 14 55 62 96 106
40 45 119 133 176 196 166 184 261 290 320 355 30 33 89 98 130 145 41 46 94
104 117 129 23 25 51 57 62 70 11 13 44 94 71 180 28 86 101 309 161 496 61
187 137 422 170 523 33 100 58 186 55 190 -2 4 -7 44 -11 89 -3 45 -7 90 -9
100 -2 10 -7 47 -10 83 -4 36 -9 81 -11 100 -2 19 -7 64 -10 100 -3 36 -8 76
-10 90 -2 14 -7 54 -10 90 -7 68 -11 115 -20 190 -2 25 -7 74 -10 110 -3 36
-8 76 -10 90 -2 14 -7 52 -10 85 -3 33 -8 78 -10 100 -2 22 -7 67 -10 100 -4
35 -16 77 -30 100 -12 22 -32 56 -43 75 -11 19 -52 91 -92 160 -40 69 -84 146
-99 171 -14 25 -122 212 -240 415 l-213 369 -202 146 c-110 80 -367 266 -570
414 l-369 268 -409 88 c-225 48 -421 90 -436 93 -35 6 -354 73 -412 87 -45 11
-73 16 -120 23 -14 2 -72 -7 -130 -20z m235 -89 c33 -8 71 -16 85 -19 14 -2
79 -16 145 -31 106 -23 407 -87 475 -101 14 -3 86 -18 161 -34 74 -16 150 -32
168 -35 134 -23 208 -48 256 -84 27 -21 273 -199 545 -396 272 -197 503 -367
512 -379 14 -17 172 -285 224 -381 6 -11 50 -87 97 -168 48 -82 87 -153 87
-158 0 -5 5 -9 10 -9 6 0 10 -4 10 -10 0 -8 141 -256 170 -300 6 -8 13 -22 17
-30 4 -8 22 -40 40 -71 33 -58 37 -71 48 -179 4 -36 9 -77 10 -93 2 -15 7 -62
10 -105 4 -42 9 -84 10 -92 2 -8 6 -51 10 -95 4 -44 9 -88 11 -97 1 -9 5 -49
9 -90 3 -40 8 -84 10 -98 2 -14 6 -54 10 -90 3 -36 8 -81 10 -100 11 -99 16
-139 19 -180 3 -25 8 -79 12 -120 11 -100 12 -90 -34 -231 -22 -68 -98 -299
-167 -514 -194 -599 -214 -656 -242 -689 -14 -17 -62 -71 -107 -121 -46 -49
-100 -110 -122 -135 -21 -24 -46 -51 -54 -60 -34 -36 -176 -194 -193 -214 -17
-20 -150 -166 -172 -190 -6 -6 -63 -70 -128 -143 -65 -72 -133 -138 -150 -146
-18 -8 -66 -29 -107 -47 -74 -32 -126 -55 -237 -106 -32 -14 -139 -62 -238
-106 -99 -44 -208 -93 -243 -109 -35 -16 -65 -29 -67 -29 -2 0 -32 -13 -67
-29 -35 -16 -110 -50 -168 -75 l-104 -46 -687 0 -687 0 -293 131 c-162 72
-307 137 -324 144 -16 8 -118 53 -225 100 -405 180 -421 188 -459 231 -36 41
-202 225 -211 234 -3 3 -61 68 -129 145 -68 77 -131 147 -140 155 -9 9 -50 54
-91 100 -41 47 -79 90 -85 96 -5 6 -46 51 -91 100 -45 49 -93 104 -109 122
-28 33 -30 39 -255 732 -61 190 -130 401 -152 470 -23 69 -41 132 -42 140 0
14 12 143 19 205 2 17 7 64 11 105 3 41 7 82 9 91 2 8 6 48 10 88 3 40 8 81
10 90 2 10 6 54 10 97 4 43 8 90 10 104 2 14 7 57 10 95 4 39 8 81 10 95 2 14
6 54 10 90 3 36 13 121 20 188 l14 124 97 166 c53 92 108 187 122 212 14 25
72 126 130 225 58 99 115 198 127 220 13 22 66 113 118 203 l94 163 554 403
c305 222 564 406 577 410 12 4 34 10 49 12 53 10 548 115 583 124 19 5 51 12
70 15 19 3 42 8 50 10 8 2 26 6 40 9 24 4 142 29 385 81 66 14 125 27 130 29
13 5 64 -2 140 -19z"/>
</g>
</svg>
